STARTFONT 2.1
FONT -FontForge-Fredoka One-Book-R-Normal--20-200-72-72-P-116-ISO10646-1
SIZE 20 72 72
FONTBOUNDINGBOX 27 24 -3 -5
COMMENT "Generated by fontforge, http://fontforge.sourceforge.net"
COMMENT "Copyright (c) 2011 Milena B Brandao (milenabbrandao@gmail.com), with Reserved Font Name "Fredoka""
STARTPROPERTIES 39
FOUNDRY "FontForge"
FAMILY_NAME "Fredoka One"
WEIGHT_NAME "Book"
SLANT "R"
SETWIDTH_NAME "Normal"
ADD_STYLE_NAME ""
PIXEL_SIZE 20
POINT_SIZE 200
RESOLUTION_X 72
RESOLUTION_Y 72
SPACING "P"
AVERAGE_WIDTH 116
CHARSET_REGISTRY "ISO10646"
CHARSET_ENCODING "1"
FONTNAME_REGISTRY ""
CHARSET_COLLECTIONS "ISO10646-1"
FONT_NAME "FredokaOne-Regular"
FACE_NAME "Fredoka One"
COPYRIGHT "Copyright (c) 2011 Milena B Brandao (milenabbrandao@gmail.com), with Reserved Font Name "Fredoka""
FONT_VERSION "1.001"
FONT_ASCENT 16
FONT_DESCENT 4
UNDERLINE_POSITION -2
UNDERLINE_THICKNESS 1
X_HEIGHT 10
CAP_HEIGHT 14
RAW_ASCENT 800
RAW_DESCENT 200
NORM_SPACE 5
RELATIVE_WEIGHT 40
RELATIVE_SETWIDTH 50
SUPERSCRIPT_X 0
SUPERSCRIPT_Y 9
SUPERSCRIPT_SIZE 13
SUBSCRIPT_X 0
SUBSCRIPT_Y 2
SUBSCRIPT_SIZE 13
AVG_LOWERCASE_WIDTH 114
AVG_UPPERCASE_WIDTH 139
ENDPROPERTIES
CHARS 235
STARTCHAR space
ENCODING 32
SWIDTH 253 0
DWIDTH 5 0
BBX 1 1 0 0
BITMAP
00
ENDCHAR
STARTCHAR exclam
ENCODING 33
SWIDTH 267 0
DWIDTH 5 0
BBX 4 15 1 0
BITMAP
E0
E0
E0
E0
E0
E0
E0
E0
E0
E0
00
E0
F0
F0
E0
ENDCHAR
STARTCHAR quotedbl
ENCODING 34
SWIDTH 429 0
DWIDTH 9 0
BBX 8 7 0 8
BITMAP
62
77
F7
77
67
67
62
ENDCHAR
STARTCHAR numbersign
ENCODING 35
SWIDTH 749 0
DWIDTH 15 0
BBX 15 15 0 0
BITMAP
0618
0E38
0E38
0E38
3FFE
7FFE
7FFC
1C70
1C70
7FFC
FFFC
7FF8
18E0
38E0
38E0
ENDCHAR
STARTCHAR dollar
ENCODING 36
SWIDTH 475 0
DWIDTH 10 0
BBX 9 18 0 -2
BITMAP
0800
0C00
0C00
3E00
7F00
7F00
7000
7800
7F00
1F80
0380
6380
FF80
7F00
3E00
0C00
0C00
0800
ENDCHAR
STARTCHAR percent
ENCODING 37
SWIDTH 838 0
DWIDTH 17 0
BBX 15 17 1 -1
BITMAP
0010
3830
7C30
FC60
CE60
CEC0
FC80
7D80
3B00
037C
067E
06E6
0CC6
0CEE
187C
183C
1000
ENDCHAR
STARTCHAR ampersand
ENCODING 38
SWIDTH 748 0
DWIDTH 15 0
BBX 15 15 0 0
BITMAP
1F80
3FC0
3DC0
39E0
3BC0
3FC0
1F80
3E00
7F3C
7FB8
F7F8
73F0
7FFC
7FFE
3FBC
ENDCHAR
STARTCHAR quotesingle
ENCODING 39
SWIDTH 208 0
DWIDTH 4 0
BBX 4 7 0 8
BITMAP
60
70
F0
70
60
60
60
ENDCHAR
STARTCHAR parenleft
ENCODING 40
SWIDTH 384 0
DWIDTH 8 0
BBX 6 21 1 -5
BITMAP
04
1C
3C
70
70
E0
E0
E0
E0
E0
E0
E0
E0
E0
E0
E0
70
70
3C
1C
0C
ENDCHAR
STARTCHAR parenright
ENCODING 41
SWIDTH 384 0
DWIDTH 8 0
BBX 7 21 0 -5
BITMAP
40
F0
F8
3C
1C
1C
0E
0E
0E
0E
0E
0E
0E
0E
0E
1C
1C
3C
F8
F0
40
ENDCHAR
STARTCHAR asterisk
ENCODING 42
SWIDTH 503 0
DWIDTH 10 0
BBX 10 9 0 6
BITMAP
0C00
1E00
7F80
FFC0
FFC0
3F00
3F00
7F80
3300
ENDCHAR
STARTCHAR plus
ENCODING 43
SWIDTH 527 0
DWIDTH 11 0
BBX 10 9 0 1
BITMAP
0E00
0E00
0E00
7FC0
FFC0
7FC0
0E00
0E00
0E00
ENDCHAR
STARTCHAR comma
ENCODING 44
SWIDTH 238 0
DWIDTH 5 0
BBX 3 7 1 -3
BITMAP
E0
E0
E0
E0
60
C0
C0
ENDCHAR
STARTCHAR hyphen
ENCODING 45
SWIDTH 433 0
DWIDTH 9 0
BBX 8 3 0 3
BITMAP
7F
FF
7F
ENDCHAR
STARTCHAR period
ENCODING 46
SWIDTH 237 0
DWIDTH 5 0
BBX 4 4 0 0
BITMAP
70
70
F0
70
ENDCHAR
STARTCHAR slash
ENCODING 47
SWIDTH 526 0
DWIDTH 11 0
BBX 10 17 0 -1
BITMAP
0080
01C0
03C0
03C0
0780
0780
0700
0F00
0E00
1E00
1C00
3C00
3800
7800
7000
F000
6000
ENDCHAR
STARTCHAR zero
ENCODING 48
SWIDTH 608 0
DWIDTH 12 0
BBX 12 15 0 0
BITMAP
0F00
3FC0
3FC0
7FE0
78E0
70E0
70F0
F0F0
70F0
70F0
70E0
79E0
7FE0
3FC0
1F80
ENDCHAR
STARTCHAR one
ENCODING 49
SWIDTH 407 0
DWIDTH 8 0
BBX 7 15 0 0
BITMAP
06
0E
1E
7E
FE
FE
6E
0E
0E
0E
0E
0E
0E
0E
0E
ENDCHAR
STARTCHAR two
ENCODING 50
SWIDTH 609 0
DWIDTH 12 0
BBX 12 15 0 0
BITMAP
0F00
3FC0
7FC0
7FE0
71E0
F0E0
71E0
03E0
07C0
1F80
3F00
7FC0
7FF0
FFF0
7FF0
ENDCHAR
STARTCHAR three
ENCODING 51
SWIDTH 608 0
DWIDTH 12 0
BBX 12 15 0 0
BITMAP
0F00
3FC0
3FE0
7FE0
78E0
13E0
07E0
0FC0
07E0
20F0
F0F0
79F0
7FE0
3FC0
1F80
ENDCHAR
STARTCHAR four
ENCODING 52
SWIDTH 592 0
DWIDTH 12 0
BBX 11 15 0 0
BITMAP
18C0
3DE0
39E0
39E0
79E0
79E0
71E0
7FE0
FFE0
FFE0
7FE0
01E0
01E0
01E0
00E0
ENDCHAR
STARTCHAR five
ENCODING 53
SWIDTH 530 0
DWIDTH 11 0
BBX 10 15 0 0
BITMAP
3F80
7FC0
7FC0
7F80
7800
7E00
7F00
7F80
7FC0
33C0
01C0
73C0
FFC0
7F80
3F00
ENDCHAR
STARTCHAR six
ENCODING 54
SWIDTH 560 0
DWIDTH 11 0
BBX 11 15 0 0
BITMAP
01C0
0FC0
1FC0
3FC0
3C00
7800
7600
7F80
7FC0
FBE0
71E0
71E0
7FC0
3FC0
1F00
ENDCHAR
STARTCHAR seven
ENCODING 55
SWIDTH 561 0
DWIDTH 11 0
BBX 11 15 0 0
BITMAP
7FC0
FFE0
FFE0
7FE0
03C0
03C0
0780
0F80
0F00
1E00
1E00
1C00
3C00
3C00
1C00
ENDCHAR
STARTCHAR eight
ENCODING 56
SWIDTH 582 0
DWIDTH 12 0
BBX 11 15 0 0
BITMAP
0F00
3F80
7FC0
7BE0
79E0
79E0
3FC0
3FC0
7FE0
71E0
F0E0
79E0
7FE0
3FC0
1F80
ENDCHAR
STARTCHAR nine
ENCODING 57
SWIDTH 560 0
DWIDTH 11 0
BBX 11 15 0 0
BITMAP
1F00
3F80
7FC0
7BC0
F1E0
71E0
7FE0
3FE0
1FC0
03C0
03C0
3F80
7F80
7E00
7C00
ENDCHAR
STARTCHAR colon
ENCODING 58
SWIDTH 238 0
DWIDTH 5 0
BBX 4 10 0 0
BITMAP
70
F0
70
60
00
00
70
70
F0
70
ENDCHAR
STARTCHAR semicolon
ENCODING 59
SWIDTH 237 0
DWIDTH 5 0
BBX 4 13 0 -3
BITMAP
70
F0
70
60
00
00
70
70
F0
70
30
60
60
ENDCHAR
STARTCHAR less
ENCODING 60
SWIDTH 627 0
DWIDTH 13 0
BBX 12 14 0 0
BITMAP
0020
00F0
01F0
07E0
1F80
7F00
FC00
FC00
7E00
1F80
0FE0
03F0
00F0
0020
ENDCHAR
STARTCHAR equal
ENCODING 61
SWIDTH 478 0
DWIDTH 10 0
BBX 9 7 0 1
BITMAP
7F80
7F80
7F80
0000
7F80
FF80
7F80
ENDCHAR
STARTCHAR greater
ENCODING 62
SWIDTH 627 0
DWIDTH 13 0
BBX 12 14 0 0
BITMAP
6000
7000
FC00
7F00
1F80
07E0
03F0
01F0
07E0
1FC0
3F00
FC00
F800
6000
ENDCHAR
STARTCHAR question
ENCODING 63
SWIDTH 512 0
DWIDTH 10 0
BBX 10 15 0 0
BITMAP
1E00
7F80
7F80
F3C0
61C0
03C0
0F80
0F00
1E00
0C00
0000
0C00
1E00
1E00
1E00
ENDCHAR
STARTCHAR at
ENCODING 64
SWIDTH 908 0
DWIDTH 18 0
BBX 18 16 0 -3
BITMAP
07F800
1FFE00
3C1F00
389780
73FB80
67F980
6731C0
E631C0
6771C0
67F180
73F380
707F80
383F00
1F9C00
0F8000
018000
ENDCHAR
STARTCHAR A
ENCODING 65
SWIDTH 765 0
DWIDTH 15 0
BBX 15 15 0 0
BITMAP
0100
0380
07C0
07C0
07E0
0FE0
0EF0
1EF0
1E78
3FF8
3FFC
7FFC
781E
F01E
700C
ENDCHAR
STARTCHAR B
ENCODING 66
SWIDTH 646 0
DWIDTH 13 0
BBX 11 15 1 0
BITMAP
FF00
FFC0
FFC0
FFE0
E1E0
E1E0
E7E0
E7E0
E7E0
E0E0
E0E0
FFE0
FFE0
FFC0
FF80
ENDCHAR
STARTCHAR C
ENCODING 67
SWIDTH 679 0
DWIDTH 14 0
BBX 13 15 0 0
BITMAP
03C0
0FF0
1FF8
3FF8
7C30
7800
7000
F000
7000
7000
7810
3E78
3FF8
1FF8
07E0
ENDCHAR
STARTCHAR D
ENCODING 68
SWIDTH 704 0
DWIDTH 14 0
BBX 13 15 1 0
BITMAP
FE00
FF80
FFC0
FFE0
E1F0
E0F0
E078
E078
E078
E070
E0F0
FFE0
FFE0
FFC0
FF00
ENDCHAR
STARTCHAR E
ENCODING 69
SWIDTH 638 0
DWIDTH 13 0
BBX 11 15 1 0
BITMAP
7FE0
FFE0
FFE0
FFE0
E000
E000
FF80
FF80
FF80
E000
E000
FFC0
FFE0
FFE0
FFE0
ENDCHAR
STARTCHAR F
ENCODING 70
SWIDTH 637 0
DWIDTH 13 0
BBX 11 15 1 0
BITMAP
7FE0
FFE0
FFE0
FFE0
E000
E000
FF80
FF80
FF80
E000
E000
E000
E000
E000
E000
ENDCHAR
STARTCHAR G
ENCODING 71
SWIDTH 714 0
DWIDTH 14 0
BBX 13 15 0 0
BITMAP
07C0
0FF0
3FF8
3FF8
7830
7800
71F8
F1F8
71F8
7838
7838
3E78
3FF8
1FF8
07E0
ENDCHAR
STARTCHAR H
ENCODING 72
SWIDTH 699 0
DWIDTH 14 0
BBX 12 15 1 0
BITMAP
E060
E070
E070
E070
E070
E070
FFF0
FFF0
FFF0
E070
E070
E070
E070
E070
E070
ENDCHAR
STARTCHAR I
ENCODING 73
SWIDTH 257 0
DWIDTH 5 0
BBX 3 15 1 0
BITMAP
E0
E0
E0
E0
E0
E0
E0
E0
E0
E0
E0
E0
E0
E0
E0
ENDCHAR
STARTCHAR J
ENCODING 74
SWIDTH 549 0
DWIDTH 11 0
BBX 10 15 0 0
BITMAP
01C0
01C0
01C0
01C0
01C0
01C0
01C0
01C0
01C0
01C0
21C0
73C0
FF80
7F80
3F00
ENDCHAR
STARTCHAR K
ENCODING 75
SWIDTH 639 0
DWIDTH 13 0
BBX 11 15 1 0
BITMAP
E0C0
E1E0
E3E0
E7C0
E780
EF00
FE00
FC00
FE00
FF00
EF80
E7C0
E3E0
E1E0
E0C0
ENDCHAR
STARTCHAR L
ENCODING 76
SWIDTH 587 0
DWIDTH 12 0
BBX 10 15 1 0
BITMAP
E000
E000
E000
E000
E000
E000
E000
E000
E000
E000
E000
E000
FFC0
FFC0
FFC0
ENDCHAR
STARTCHAR M
ENCODING 77
SWIDTH 870 0
DWIDTH 17 0
BBX 16 15 1 0
BITMAP
6006
F00F
F01F
F83F
FC7F
FE7F
FEFF
EFEF
E7EF
E3CF
E38F
E00F
E00F
E00F
E00E
ENDCHAR
STARTCHAR N
ENCODING 78
SWIDTH 720 0
DWIDTH 14 0
BBX 13 15 1 0
BITMAP
E030
F078
F078
F878
FC78
FE78
FE78
EF78
E7F8
E7F8
E3F8
E1F8
E0F8
E0F8
E070
ENDCHAR
STARTCHAR O
ENCODING 79
SWIDTH 775 0
DWIDTH 16 0
BBX 15 15 0 0
BITMAP
03C0
0FF0
3FF8
3FFC
7C3C
781E
701E
F01E
701E
701E
783C
7E7C
3FF8
1FF0
07E0
ENDCHAR
STARTCHAR P
ENCODING 80
SWIDTH 632 0
DWIDTH 13 0
BBX 11 15 1 0
BITMAP
FE00
FF80
FFC0
FFE0
E1E0
E0E0
E1E0
FFE0
FFC0
FFC0
FF00
E000
E000
E000
E000
ENDCHAR
STARTCHAR Q
ENCODING 81
SWIDTH 830 0
DWIDTH 17 0
BBX 16 15 0 0
BITMAP
03C0
0FF0
3FF8
3FFC
7C3C
781E
701E
F01E
701E
701E
783C
7E7E
3FFF
1FFF
07E7
ENDCHAR
STARTCHAR R
ENCODING 82
SWIDTH 631 0
DWIDTH 13 0
BBX 11 15 1 0
BITMAP
FE00
FF80
FFC0
FFE0
E1E0
E0E0
E1E0
FFE0
FFC0
FFC0
FFC0
E1E0
E1E0
E0E0
E0E0
ENDCHAR
STARTCHAR S
ENCODING 83
SWIDTH 583 0
DWIDTH 12 0
BBX 11 15 0 0
BITMAP
1F00
3FC0
7FC0
79C0
7080
7800
7F00
3FC0
0FE0
01E0
60E0
F9E0
7FE0
7FC0
1F80
ENDCHAR
STARTCHAR T
ENCODING 84
SWIDTH 731 0
DWIDTH 15 0
BBX 14 15 0 0
BITMAP
7FFC
FFFC
FFFC
0380
0380
0380
0380
0380
0380
0380
0380
0380
0380
0380
0380
ENDCHAR
STARTCHAR U
ENCODING 85
SWIDTH 726 0
DWIDTH 15 0
BBX 13 15 1 0
BITMAP
E030
E078
E078
E078
E078
E078
E078
E078
E078
F078
F070
79F0
7FE0
3FE0
1F80
ENDCHAR
STARTCHAR V
ENCODING 86
SWIDTH 783 0
DWIDTH 16 0
BBX 15 15 0 0
BITMAP
200C
F00E
F01E
781E
783C
3C3C
3C78
1E78
1E70
0FF0
0FE0
07E0
07C0
03C0
0180
ENDCHAR
STARTCHAR W
ENCODING 87
SWIDTH 999 0
DWIDTH 20 0
BBX 20 15 0 0
BITMAP
606060
F0F0F0
F0F0F0
78F1E0
79F9E0
79F9C0
39FBC0
3FFFC0
1FFF80
1F9F80
1F9F80
0F1F00
0F0F00
0F0F00
060600
ENDCHAR
STARTCHAR X
ENCODING 88
SWIDTH 741 0
DWIDTH 15 0
BBX 15 15 0 0
BITMAP
601C
F01E
F83C
7C7C
3EF8
1FF0
0FE0
07C0
0FE0
1FF0
3EF0
7C78
783C
F03E
701C
ENDCHAR
STARTCHAR Y
ENCODING 89
SWIDTH 686 0
DWIDTH 14 0
BBX 13 15 0 0
BITMAP
2030
F038
F878
78F8
3CF0
3FE0
1FE0
0FC0
0F80
0780
0780
0780
0780
0780
0700
ENDCHAR
STARTCHAR Z
ENCODING 90
SWIDTH 643 0
DWIDTH 13 0
BBX 12 15 0 0
BITMAP
7FE0
7FF0
FFF0
7FE0
03E0
03C0
0780
0F80
0F00
1E00
3C00
7C00
7FF0
FFF0
7FF0
ENDCHAR
STARTCHAR bracketleft
ENCODING 91
SWIDTH 348 0
DWIDTH 7 0
BBX 6 20 1 -5
BITMAP
FC
FC
E0
E0
E0
E0
E0
E0
E0
E0
E0
E0
E0
E0
E0
E0
E0
FC
FC
78
ENDCHAR
STARTCHAR backslash
ENCODING 92
SWIDTH 528 0
DWIDTH 11 0
BBX 10 17 0 -1
BITMAP
2000
F000
F000
7800
7800
3C00
3C00
1E00
1E00
0E00
0F00
0700
0780
0380
03C0
01C0
01C0
ENDCHAR
STARTCHAR bracketright
ENCODING 93
SWIDTH 348 0
DWIDTH 7 0
BBX 6 20 0 -5
BITMAP
FC
FC
1C
1C
1C
1C
1C
1C
1C
1C
1C
1C
1C
1C
1C
1C
1C
FC
FC
78
ENDCHAR
STARTCHAR asciicircum
ENCODING 94
SWIDTH 526 0
DWIDTH 11 0
BBX 9 6 1 5
BITMAP
1800
3C00
7E00
FF00
E780
C300
ENDCHAR
STARTCHAR underscore
ENCODING 95
SWIDTH 826 0
DWIDTH 17 0
BBX 16 3 0 -5
BITMAP
FFFF
FFFF
7FFF
ENDCHAR
STARTCHAR grave
ENCODING 96
SWIDTH 482 0
DWIDTH 10 0
BBX 6 4 2 11
BITMAP
F0
FC
7C
08
ENDCHAR
STARTCHAR a
ENCODING 97
SWIDTH 596 0
DWIDTH 12 0
BBX 11 11 0 0
BITMAP
0440
1FE0
3FE0
7FE0
79E0
F1E0
71E0
7FE0
7FE0
3FE0
1EE0
ENDCHAR
STARTCHAR b
ENCODING 98
SWIDTH 592 0
DWIDTH 12 0
BBX 10 15 1 0
BITMAP
E000
E000
E000
E000
E400
FF00
FF80
FFC0
F3C0
E1C0
F1C0
FFC0
FFC0
FF80
EE00
ENDCHAR
STARTCHAR c
ENCODING 99
SWIDTH 517 0
DWIDTH 10 0
BBX 10 11 0 0
BITMAP
0600
1F80
3FC0
7F80
7980
F000
7000
7F80
7FC0
3FC0
0F00
ENDCHAR
STARTCHAR d
ENCODING 100
SWIDTH 598 0
DWIDTH 12 0
BBX 10 15 1 0
BITMAP
01C0
01C0
01C0
01C0
09C0
3FC0
7FC0
FFC0
F3C0
E1C0
E3C0
FFC0
FFC0
7FC0
1DC0
ENDCHAR
STARTCHAR e
ENCODING 101
SWIDTH 573 0
DWIDTH 11 0
BBX 11 11 0 0
BITMAP
0F00
3FC0
7FC0
7DE0
71E0
FFE0
7FC0
7800
7FC0
3FC0
1FC0
ENDCHAR
STARTCHAR f
ENCODING 102
SWIDTH 450 0
DWIDTH 9 0
BBX 9 16 0 0
BITMAP
0200
1F00
1F00
3F00
3C00
3E00
FF80
FF80
7F00
3C00
3C00
3C00
3C00
3C00
3C00
3800
ENDCHAR
STARTCHAR g
ENCODING 103
SWIDTH 585 0
DWIDTH 12 0
BBX 11 16 0 -5
BITMAP
04C0
3EE0
3FE0
7FE0
71E0
F1E0
71E0
7FE0
7FE0
3FE0
0DE0
11E0
3FE0
7FC0
3F80
0400
ENDCHAR
STARTCHAR h
ENCODING 104
SWIDTH 605 0
DWIDTH 12 0
BBX 10 15 1 0
BITMAP
E000
E000
E000
E000
E400
FF00
FF80
FFC0
F3C0
E1C0
E1C0
E1C0
E1C0
E1C0
E1C0
ENDCHAR
STARTCHAR i
ENCODING 105
SWIDTH 255 0
DWIDTH 5 0
BBX 3 15 1 0
BITMAP
E0
E0
E0
00
40
E0
E0
E0
E0
E0
E0
E0
E0
E0
E0
ENDCHAR
STARTCHAR j
ENCODING 106
SWIDTH 252 0
DWIDTH 5 0
BBX 7 20 -3 -5
BITMAP
0E
0E
0E
00
04
0E
0E
0E
0E
0E
0E
0E
0E
0E
0E
1E
7E
FC
F8
20
ENDCHAR
STARTCHAR k
ENCODING 107
SWIDTH 536 0
DWIDTH 11 0
BBX 9 16 1 0
BITMAP
4000
E000
E000
E000
E000
E000
E300
EF80
FF80
FE00
FC00
FE00
FF00
EF80
E780
E380
ENDCHAR
STARTCHAR l
ENCODING 108
SWIDTH 327 0
DWIDTH 7 0
BBX 5 16 1 0
BITMAP
40
E0
E0
E0
E0
E0
E0
E0
E0
E0
E0
E0
E0
F8
F8
78
ENDCHAR
STARTCHAR m
ENCODING 109
SWIDTH 851 0
DWIDTH 17 0
BBX 15 11 1 0
BITMAP
4410
FF7C
FFFE
FFFE
F3DE
E38E
E38E
E38E
E38E
E38E
E38E
ENDCHAR
STARTCHAR n
ENCODING 110
SWIDTH 606 0
DWIDTH 12 0
BBX 10 11 1 0
BITMAP
4400
FF80
FF80
FFC0
F3C0
E1C0
E1C0
E1C0
E1C0
E1C0
E1C0
ENDCHAR
STARTCHAR o
ENCODING 111
SWIDTH 600 0
DWIDTH 12 0
BBX 12 11 0 0
BITMAP
0F00
1FC0
3FE0
7FE0
70E0
F0F0
70E0
79E0
7FE0
3FC0
1F80
ENDCHAR
STARTCHAR p
ENCODING 112
SWIDTH 582 0
DWIDTH 12 0
BBX 10 16 1 -5
BITMAP
4400
FF00
FF80
FFC0
F3C0
E1C0
F3C0
FFC0
FF80
FF00
EE00
E000
E000
E000
E000
4000
ENDCHAR
STARTCHAR q
ENCODING 113
SWIDTH 582 0
DWIDTH 12 0
BBX 11 16 0 -5
BITMAP
04C0
1FE0
3FE0
7FE0
71E0
F1E0
71E0
7FE0
7FE0
3FE0
0DE0
01E0
01E0
01E0
01E0
00C0
ENDCHAR
STARTCHAR r
ENCODING 114
SWIDTH 457 0
DWIDTH 9 0
BBX 8 11 1 0
BITMAP
46
FF
FF
FE
E0
E0
E0
E0
E0
E0
E0
ENDCHAR
STARTCHAR s
ENCODING 115
SWIDTH 489 0
DWIDTH 10 0
BBX 9 11 0 0
BITMAP
1E00
7F80
7F80
7100
7E00
7F80
3F80
6380
7F80
FF80
3F00
ENDCHAR
STARTCHAR t
ENCODING 116
SWIDTH 449 0
DWIDTH 9 0
BBX 9 14 0 0
BITMAP
3800
3C00
3C00
7E00
FF80
FF80
FF00
3C00
3C00
3C00
3C00
3F00
1F00
0F00
ENDCHAR
STARTCHAR u
ENCODING 117
SWIDTH 606 0
DWIDTH 12 0
BBX 10 11 1 0
BITMAP
4080
E1C0
E1C0
E1C0
E1C0
E1C0
E1C0
FFC0
FFC0
7FC0
3DC0
ENDCHAR
STARTCHAR v
ENCODING 118
SWIDTH 638 0
DWIDTH 13 0
BBX 12 11 0 0
BITMAP
2020
F070
F0F0
78F0
39E0
3DE0
1FC0
1FC0
0F80
0F00
0700
ENDCHAR
STARTCHAR w
ENCODING 119
SWIDTH 793 0
DWIDTH 16 0
BBX 16 11 0 0
BITMAP
2104
F3CF
F3CE
7BDE
7FFE
3FFC
3FFC
3FF8
1E78
1E78
0C30
ENDCHAR
STARTCHAR x
ENCODING 120
SWIDTH 567 0
DWIDTH 11 0
BBX 11 11 0 0
BITMAP
2040
71E0
FBE0
7FC0
3F80
1F00
3F80
7FC0
7BE0
F1E0
60C0
ENDCHAR
STARTCHAR y
ENCODING 121
SWIDTH 604 0
DWIDTH 12 0
BBX 12 16 0 -5
BITMAP
2040
F0F0
F0F0
79E0
3DE0
3FC0
1FC0
1F80
0F80
0700
0F00
0F00
1E00
1E00
1C00
0C00
ENDCHAR
STARTCHAR z
ENCODING 122
SWIDTH 586 0
DWIDTH 12 0
BBX 11 11 0 0
BITMAP
3FC0
7FE0
7FE0
7FC0
0780
0F00
1E00
3FC0
7FE0
FFE0
7FE0
ENDCHAR
STARTCHAR braceleft
ENCODING 123
SWIDTH 381 0
DWIDTH 8 0
BBX 7 20 0 -5
BITMAP
0E
1E
1C
18
18
18
18
18
F8
F0
F8
38
18
18
18
18
1C
1E
0E
04
ENDCHAR
STARTCHAR bar
ENCODING 124
SWIDTH 217 0
DWIDTH 4 0
BBX 3 20 1 -5
BITMAP
C0
E0
E0
E0
E0
E0
E0
E0
E0
E0
E0
E0
E0
E0
E0
E0
E0
E0
E0
C0
ENDCHAR
STARTCHAR braceright
ENCODING 125
SWIDTH 381 0
DWIDTH 8 0
BBX 7 20 0 -5
BITMAP
F0
F8
38
38
38
38
38
38
1E
1E
1E
38
38
38
38
38
38
F8
F0
40
ENDCHAR
STARTCHAR asciitilde
ENCODING 126
SWIDTH 651 0
DWIDTH 13 0
BBX 10 5 1 3
BITMAP
1080
7DC0
FFC0
FFC0
6700
ENDCHAR
STARTCHAR exclamdown
ENCODING 161
SWIDTH 268 0
DWIDTH 5 0
BBX 4 15 1 -5
BITMAP
E0
F0
E0
40
00
E0
E0
E0
E0
E0
E0
E0
E0
E0
40
ENDCHAR
STARTCHAR cent
ENCODING 162
SWIDTH 434 0
DWIDTH 9 0
BBX 8 15 0 -2
BITMAP
0C
0C
0C
1E
7F
7F
70
E0
72
7F
3F
0C
0C
0C
0C
ENDCHAR
STARTCHAR sterling
ENCODING 163
SWIDTH 675 0
DWIDTH 14 0
BBX 13 15 0 0
BITMAP
03C0
0FF0
1FF8
1FF8
3C30
3800
3E00
FF80
FF80
1C00
1C00
1C00
3FF8
3FF8
3FF8
ENDCHAR
STARTCHAR currency
ENCODING 164
SWIDTH 677 0
DWIDTH 14 0
BBX 13 15 0 0
BITMAP
6038
7DF8
7FF0
3FF0
7CF0
7070
7038
7038
7078
7870
3FF0
3FF0
7FF8
F038
6010
ENDCHAR
STARTCHAR yen
ENCODING 165
SWIDTH 677 0
DWIDTH 14 0
BBX 13 15 0 0
BITMAP
2030
F038
F878
78F8
3CF0
3DE0
1FE0
0FC0
3FE0
3FE0
0780
3FE0
3FE0
0780
0700
ENDCHAR
STARTCHAR brokenbar
ENCODING 166
SWIDTH 215 0
DWIDTH 4 0
BBX 3 19 1 -4
BITMAP
C0
E0
E0
E0
E0
E0
E0
C0
C0
00
C0
C0
E0
E0
E0
E0
E0
E0
C0
ENDCHAR
STARTCHAR section
ENCODING 167
SWIDTH 560 0
DWIDTH 11 0
BBX 11 20 0 -5
BITMAP
3F80
3FC0
7FC0
7180
7000
7E00
3FC0
7FC0
7BE0
71E0
79E0
7FC0
3FC0
07E0
21E0
71E0
FFC0
7FC0
3F80
0400
ENDCHAR
STARTCHAR dieresis
ENCODING 168
SWIDTH 489 0
DWIDTH 10 0
BBX 9 3 1 12
BITMAP
E780
E780
E780
ENDCHAR
STARTCHAR copyright
ENCODING 169
SWIDTH 711 0
DWIDTH 14 0
BBX 14 13 0 2
BITMAP
0FC0
3FF0
7038
67D8
4FCC
5C0C
D80C
5C0C
4FCC
67D8
7018
3FF0
0FE0
ENDCHAR
STARTCHAR ordfeminine
ENCODING 170
SWIDTH 445 0
DWIDTH 9 0
BBX 8 7 0 7
BITMAP
3F
7F
67
E7
77
7F
3F
ENDCHAR
STARTCHAR guillemotleft
ENCODING 171
SWIDTH 668 0
DWIDTH 13 0
BBX 13 10 0 0
BITMAP
0E38
1E78
3CF0
79E0
F3C0
79E0
7DF0
3EF8
1E78
0C30
ENDCHAR
STARTCHAR logicalnot
ENCODING 172
SWIDTH 526 0
DWIDTH 11 0
BBX 10 7 0 2
BITMAP
7FC0
FFC0
FFC0
7FC0
00C0
00C0
0080
ENDCHAR
STARTCHAR registered
ENCODING 174
SWIDTH 711 0
DWIDTH 14 0
BBX 14 13 0 2
BITMAP
0FC0
3FF0
7038
6FD8
4FCC
4ECC
CFCC
4FCC
4ECC
6ED8
7018
3FF0
0FE0
ENDCHAR
STARTCHAR degree
ENCODING 176
SWIDTH 407 0
DWIDTH 8 0
BBX 8 7 0 8
BITMAP
3C
7E
67
E7
7E
7E
1C
ENDCHAR
STARTCHAR plusminus
ENCODING 177
SWIDTH 505 0
DWIDTH 10 0
BBX 10 11 0 0
BITMAP
0C00
0E00
7F80
7FC0
FFC0
0E00
0E00
0000
7F80
7F80
7F80
ENDCHAR
STARTCHAR twosuperior
ENCODING 178
SWIDTH 455 0
DWIDTH 9 0
BBX 9 11 0 4
BITMAP
3C00
7F00
7F00
F700
6700
0F00
1E00
7C00
7F80
7F80
7F00
ENDCHAR
STARTCHAR threesuperior
ENCODING 179
SWIDTH 457 0
DWIDTH 9 0
BBX 9 11 0 4
BITMAP
1E00
7F00
7F00
7700
0F00
1F00
6780
E380
7F00
7F00
1C00
ENDCHAR
STARTCHAR acute
ENCODING 180
SWIDTH 605 0
DWIDTH 12 0
BBX 6 4 3 11
BITMAP
7C
FC
F8
40
ENDCHAR
STARTCHAR mu
ENCODING 181
SWIDTH 601 0
DWIDTH 12 0
BBX 10 15 1 -4
BITMAP
4080
E1C0
E1C0
E1C0
E1C0
E1C0
E1C0
FFC0
FFC0
FFC0
EDC0
E000
E000
E000
E000
ENDCHAR
STARTCHAR paragraph
ENCODING 182
SWIDTH 614 0
DWIDTH 12 0
BBX 10 17 1 -5
BITMAP
FFC0
FFC0
FDC0
FDC0
FDC0
FDC0
7DC0
1DC0
1DC0
1DC0
1DC0
1DC0
1DC0
1DC0
1DC0
1DC0
08C0
ENDCHAR
STARTCHAR periodcentered
ENCODING 183
SWIDTH 237 0
DWIDTH 5 0
BBX 4 4 0 4
BITMAP
70
F0
70
70
ENDCHAR
STARTCHAR cedilla
ENCODING 184
SWIDTH 559 0
DWIDTH 11 0
BBX 3 5 4 -4
BITMAP
40
E0
20
E0
C0
ENDCHAR
STARTCHAR onesuperior
ENCODING 185
SWIDTH 321 0
DWIDTH 6 0
BBX 6 11 0 4
BITMAP
18
3C
7C
FC
7C
1C
1C
1C
1C
1C
18
ENDCHAR
STARTCHAR ordmasculine
ENCODING 186
SWIDTH 439 0
DWIDTH 9 0
BBX 8 8 0 6
BITMAP
3E
7F
77
E3
63
7F
3E
08
ENDCHAR
STARTCHAR guillemotright
ENCODING 187
SWIDTH 669 0
DWIDTH 13 0
BBX 13 10 0 0
BITMAP
6180
F3C0
79E0
3CF0
1E78
1E78
3CF0
79E0
F3C0
6180
ENDCHAR
STARTCHAR onequarter
ENCODING 188
SWIDTH 786 0
DWIDTH 16 0
BBX 14 17 1 -1
BITMAP
0040
3060
70C0
F0C0
7180
3180
3300
3300
36FC
06DC
0CDC
0CFC
19FC
30FC
301C
6018
2000
ENDCHAR
STARTCHAR onehalf
ENCODING 189
SWIDTH 804 0
DWIDTH 16 0
BBX 14 17 1 -1
BITMAP
0040
3060
70C0
F0C0
7180
3180
3300
3300
36F8
06F8
0DDC
0C98
1878
30F0
31FC
60FC
2000
ENDCHAR
STARTCHAR threequarters
ENCODING 190
SWIDTH 842 0
DWIDTH 17 0
BBX 15 17 1 -1
BITMAP
0020
7830
FC60
4C60
3CC0
3CC0
CD80
FD80
7B7E
036E
066E
067E
0CFE
0C7E
180E
380E
1000
ENDCHAR
STARTCHAR questiondown
ENCODING 191
SWIDTH 511 0
DWIDTH 10 0
BBX 10 15 0 -4
BITMAP
0C00
1E00
1E00
0E00
0000
0000
0E00
3E00
7C00
7800
F180
71C0
7FC0
7F80
3F00
ENDCHAR
STARTCHAR Agrave
ENCODING 192
SWIDTH 765 0
DWIDTH 15 0
BBX 15 19 0 0
BITMAP
0F00
0FC0
07C0
00C0
0100
0380
07C0
07C0
07E0
0FE0
0EF0
1EF0
1E78
3FF8
3FFC
7FFC
781E
F01E
700C
ENDCHAR
STARTCHAR Aacute
ENCODING 193
SWIDTH 765 0
DWIDTH 15 0
BBX 15 19 0 0
BITMAP
01E0
07E0
03C0
0200
0100
0380
07C0
07C0
07E0
0FE0
0EF0
1EF0
1E78
3FF8
3FFC
7FFC
781E
F01E
700C
ENDCHAR
STARTCHAR Acircumflex
ENCODING 194
SWIDTH 765 0
DWIDTH 15 0
BBX 15 19 0 0
BITMAP
07E0
0FF0
0EE0
0000
0100
0380
07C0
07C0
07E0
0FE0
0EF0
1EF0
1E78
3FF8
3FFC
7FFC
781E
F01E
700C
ENDCHAR
STARTCHAR Atilde
ENCODING 195
SWIDTH 765 0
DWIDTH 15 0
BBX 15 19 0 0
BITMAP
0FF0
0FE0
0DE0
0000
0100
0380
07C0
07C0
07E0
0FE0
0EF0
1EF0
1E78
3FF8
3FFC
7FFC
781E
F01E
700C
ENDCHAR
STARTCHAR Adieresis
ENCODING 196
SWIDTH 765 0
DWIDTH 15 0
BBX 15 19 0 0
BITMAP
1E70
1E70
1E70
0000
0100
0380
07C0
07C0
07E0
0FE0
0EF0
1EF0
1E78
3FF8
3FFC
7FFC
781E
F01E
700C
ENDCHAR
STARTCHAR Aring
ENCODING 197
SWIDTH 765 0
DWIDTH 15 0
BBX 15 18 0 0
BITMAP
03C0
0640
0440
07C0
0380
07C0
07C0
07E0
0FE0
0EF0
1EF0
1E78
3FF8
3FFC
7FFC
781E
F01E
700C
ENDCHAR
STARTCHAR AE
ENCODING 198
SWIDTH 1148 0
DWIDTH 23 0
BBX 22 15 0 0
BITMAP
001FFC
003FFC
007FFC
00FFFC
01FE00
01FE00
03DFF0
079FF0
0F9FF0
1FFE00
3FFE00
7FFFFC
F81FFC
F01FFC
600FFC
ENDCHAR
STARTCHAR Ccedilla
ENCODING 199
SWIDTH 679 0
DWIDTH 14 0
BBX 13 19 0 -4
BITMAP
03C0
0FF0
3FF8
3FF8
7C30
7800
7000
F000
7000
7000
7810
3E78
3FF8
1FF8
07E0
03C0
01C0
03C0
0180
ENDCHAR
STARTCHAR Egrave
ENCODING 200
SWIDTH 638 0
DWIDTH 13 0
BBX 11 19 1 0
BITMAP
1C00
1F80
1F80
0300
7FE0
FFE0
FFE0
FFE0
E000
E000
FF80
FF80
FF80
E000
E000
FFC0
FFE0
FFE0
FFE0
ENDCHAR
STARTCHAR Eacute
ENCODING 201
SWIDTH 638 0
DWIDTH 13 0
BBX 11 19 1 0
BITMAP
0F80
1F80
1F00
0800
7FE0
FFE0
FFE0
FFE0
E000
E000
FF80
FF80
FF80
E000
E000
FFC0
FFE0
FFE0
FFE0
ENDCHAR
STARTCHAR Ecircumflex
ENCODING 202
SWIDTH 638 0
DWIDTH 13 0
BBX 11 19 1 0
BITMAP
3F80
7F80
3B80
0000
7FE0
FFE0
FFE0
FFE0
E000
E000
FF80
FF80
FF80
E000
E000
FFC0
FFE0
FFE0
FFE0
ENDCHAR
STARTCHAR Edieresis
ENCODING 203
SWIDTH 638 0
DWIDTH 13 0
BBX 11 19 1 0
BITMAP
79C0
7BC0
71C0
0000
7FE0
FFE0
FFE0
FFE0
E000
E000
FF80
FF80
FF80
E000
E000
FFC0
FFE0
FFE0
FFE0
ENDCHAR
STARTCHAR Igrave
ENCODING 204
SWIDTH 267 0
DWIDTH 5 0
BBX 6 19 -1 0
BITMAP
F0
FC
FC
18
18
38
38
38
38
38
38
38
38
38
38
38
38
38
38
ENDCHAR
STARTCHAR Iacute
ENCODING 205
SWIDTH 269 0
DWIDTH 5 0
BBX 6 19 0 0
BITMAP
3C
FC
78
40
30
70
70
70
70
70
70
70
70
70
70
70
70
70
70
ENDCHAR
STARTCHAR Icircumflex
ENCODING 206
SWIDTH 270 0
DWIDTH 5 0
BBX 8 19 -1 0
BITMAP
7E
FF
EE
00
18
38
38
38
38
38
38
38
38
38
38
38
38
38
38
ENDCHAR
STARTCHAR Idieresis
ENCODING 207
SWIDTH 268 0
DWIDTH 5 0
BBX 9 19 -2 0
BITMAP
F380
F380
F380
0000
0C00
1C00
1E00
1E00
1E00
1E00
1E00
1E00
1E00
1E00
1E00
1E00
1E00
1C00
1C00
ENDCHAR
STARTCHAR Eth
ENCODING 208
SWIDTH 775 0
DWIDTH 16 0
BBX 15 15 0 0
BITMAP
1F80
3FF0
3FF8
3FFC
3C3C
3C1E
7E1E
FE1E
7E1E
3C1E
3C3C
3FFC
3FF8
3FF0
3FC0
ENDCHAR
STARTCHAR Ntilde
ENCODING 209
SWIDTH 720 0
DWIDTH 14 0
BBX 13 19 1 0
BITMAP
1EC0
3FC0
1380
0000
E030
F078
F078
F878
FC78
FE78
FE78
EF78
E7F8
E7F8
E3F8
E1F8
E0F8
E0F8
E070
ENDCHAR
STARTCHAR Ograve
ENCODING 210
SWIDTH 775 0
DWIDTH 16 0
BBX 15 19 0 0
BITMAP
0700
0FC0
07C0
00C0
03C0
0FF0
3FF8
3FFC
7C3C
781E
701E
F01E
701E
701E
783C
7E7C
3FF8
1FF0
07E0
ENDCHAR
STARTCHAR Oacute
ENCODING 211
SWIDTH 775 0
DWIDTH 16 0
BBX 15 19 0 0
BITMAP
01E0
07E0
07C0
0200
03C0
0FF0
3FF8
3FFC
7C3C
781E
701E
F01E
701E
701E
783C
7E7C
3FF8
1FF0
07E0
ENDCHAR
STARTCHAR Ocircumflex
ENCODING 212
SWIDTH 775 0
DWIDTH 16 0
BBX 15 19 0 0
BITMAP
07E0
0FF0
0EE0
0000
03C0
0FF0
3FF8
3FFC
7C3C
781E
701E
F01E
701E
701E
783C
7E7C
3FF8
1FF0
07E0
ENDCHAR
STARTCHAR Otilde
ENCODING 213
SWIDTH 775 0
DWIDTH 16 0
BBX 15 19 0 0
BITMAP
07B0
0FF0
04E0
0000
03C0
0FF0
3FF8
3FFC
7C3C
781E
701E
F01E
701E
701E
783C
7E7C
3FF8
1FF0
07E0
ENDCHAR
STARTCHAR Odieresis
ENCODING 214
SWIDTH 775 0
DWIDTH 16 0
BBX 15 19 0 0
BITMAP
1E70
1E70
1E70
0000
03C0
0FF0
3FF8
3FFC
7C3C
781E
701E
F01E
701E
701E
783C
7E7C
3FF8
1FF0
07E0
ENDCHAR
STARTCHAR multiply
ENCODING 215
SWIDTH 521 0
DWIDTH 10 0
BBX 10 9 0 1
BITMAP
6180
F3C0
7FC0
3F80
1F00
3F00
7F80
FBC0
71C0
ENDCHAR
STARTCHAR Oslash
ENCODING 216
SWIDTH 775 0
DWIDTH 16 0
BBX 15 17 0 -1
BITMAP
0020
03F8
0FF8
3FF8
3FFC
7CFC
79FE
71DE
F3DE
739E
779E
7F3E
7F7C
3FF8
1FF0
1FE0
1C00
ENDCHAR
STARTCHAR Ugrave
ENCODING 217
SWIDTH 726 0
DWIDTH 15 0
BBX 13 19 1 0
BITMAP
1C00
3F00
1F00
0300
E030
E078
E078
E078
E078
E078
E078
E078
E078
F078
F070
79F0
7FE0
3FE0
1F80
ENDCHAR
STARTCHAR Uacute
ENCODING 218
SWIDTH 726 0
DWIDTH 15 0
BBX 13 19 1 0
BITMAP
03C0
0FC0
0F80
0400
E030
E078
E078
E078
E078
E078
E078
E078
E078
F078
F070
79F0
7FE0
3FE0
1F80
ENDCHAR
STARTCHAR Ucircumflex
ENCODING 219
SWIDTH 726 0
DWIDTH 15 0
BBX 13 19 1 0
BITMAP
1FC0
1FE0
1DC0
0000
E030
E078
E078
E078
E078
E078
E078
E078
E078
F078
F070
79F0
7FE0
3FE0
1F80
ENDCHAR
STARTCHAR Udieresis
ENCODING 220
SWIDTH 726 0
DWIDTH 15 0
BBX 13 19 1 0
BITMAP
39E0
39E0
39E0
0000
E030
E078
E078
E078
E078
E078
E078
E078
E078
F078
F070
79F0
7FE0
3FE0
1F80
ENDCHAR
STARTCHAR Yacute
ENCODING 221
SWIDTH 686 0
DWIDTH 14 0
BBX 13 19 0 0
BITMAP
03C0
0FC0
0F80
0400
2030
F038
F878
78F8
3CF0
3FE0
1FE0
0FC0
0F80
0780
0780
0780
0780
0780
0700
ENDCHAR
STARTCHAR Thorn
ENCODING 222
SWIDTH 634 0
DWIDTH 13 0
BBX 11 15 1 0
BITMAP
E000
E000
FE00
FF80
FFC0
FFE0
E1E0
E0E0
E1E0
FFE0
FFC0
FFC0
FF00
E000
E000
ENDCHAR
STARTCHAR germandbls
ENCODING 223
SWIDTH 633 0
DWIDTH 13 0
BBX 11 16 1 -1
BITMAP
3F00
7F80
FF80
F380
E780
E700
E700
E700
E7C0
E3E0
E0E0
E4E0
EFE0
EFE0
E7C0
E000
ENDCHAR
STARTCHAR agrave
ENCODING 224
SWIDTH 596 0
DWIDTH 12 0
BBX 11 15 0 0
BITMAP
0F00
1F80
0F80
0100
0440
1FE0
3FE0
7FE0
79E0
F1E0
71E0
7FE0
7FE0
3FE0
1EE0
ENDCHAR
STARTCHAR aacute
ENCODING 225
SWIDTH 596 0
DWIDTH 12 0
BBX 11 15 0 0
BITMAP
0780
0F80
0F00
0800
0440
1FE0
3FE0
7FE0
79E0
F1E0
71E0
7FE0
7FE0
3FE0
1EE0
ENDCHAR
STARTCHAR acircumflex
ENCODING 226
SWIDTH 596 0
DWIDTH 12 0
BBX 11 15 0 0
BITMAP
1FC0
1FE0
1DC0
0000
0440
1FE0
3FE0
7FE0
79E0
F1E0
71E0
7FE0
7FE0
3FE0
1EE0
ENDCHAR
STARTCHAR atilde
ENCODING 227
SWIDTH 596 0
DWIDTH 12 0
BBX 11 15 0 0
BITMAP
1EE0
3FC0
1B80
0000
0440
1FE0
3FE0
7FE0
79E0
F1E0
71E0
7FE0
7FE0
3FE0
1EE0
ENDCHAR
STARTCHAR adieresis
ENCODING 228
SWIDTH 596 0
DWIDTH 12 0
BBX 11 15 0 0
BITMAP
3DE0
3DE0
38E0
0000
0440
1FE0
3FE0
7FE0
79E0
F1E0
71E0
7FE0
7FE0
3FE0
1EE0
ENDCHAR
STARTCHAR aring
ENCODING 229
SWIDTH 596 0
DWIDTH 12 0
BBX 11 15 0 0
BITMAP
0700
0580
0580
0700
0440
1FE0
3FE0
7FE0
79E0
F1E0
71E0
7FE0
7FE0
3FE0
1EE0
ENDCHAR
STARTCHAR ae
ENCODING 230
SWIDTH 910 0
DWIDTH 18 0
BBX 18 11 0 0
BITMAP
0E0C00
3FFF00
7FFF80
7FF3C0
31E3C0
1DFFC0
7FFF80
71E000
F3FF80
7FFF80
3E3F00
ENDCHAR
STARTCHAR ccedilla
ENCODING 231
SWIDTH 524 0
DWIDTH 10 0
BBX 10 15 0 -4
BITMAP
0F00
3FC0
3FC0
7FC0
7880
F000
7000
7F80
7FC0
3FC0
1F80
0F00
0300
0F00
0600
ENDCHAR
STARTCHAR egrave
ENCODING 232
SWIDTH 573 0
DWIDTH 11 0
BBX 11 15 0 0
BITMAP
1E00
1F80
0F80
0100
0F00
3FC0
7FC0
7DE0
71E0
FFE0
7FC0
7800
7FC0
3FC0
1FC0
ENDCHAR
STARTCHAR eacute
ENCODING 233
SWIDTH 573 0
DWIDTH 11 0
BBX 11 15 0 0
BITMAP
0780
1F80
0F00
0800
0F00
3FC0
7FC0
7DE0
71E0
FFE0
7FC0
7800
7FC0
3FC0
1FC0
ENDCHAR
STARTCHAR ecircumflex
ENCODING 234
SWIDTH 573 0
DWIDTH 11 0
BBX 11 15 0 0
BITMAP
1F80
3FC0
3FC0
0000
0F00
3FC0
7FC0
7DE0
71E0
FFE0
7FC0
7800
7FC0
3FC0
1FC0
ENDCHAR
STARTCHAR edieresis
ENCODING 235
SWIDTH 573 0
DWIDTH 11 0
BBX 11 15 0 0
BITMAP
79C0
79C0
79C0
0000
0F00
3FC0
7FC0
7DE0
71E0
FFE0
7FC0
7800
7FC0
3FC0
1FC0
ENDCHAR
STARTCHAR igrave
ENCODING 236
SWIDTH 255 0
DWIDTH 5 0
BBX 6 15 -1 0
BITMAP
F0
FC
7C
08
10
38
38
38
38
38
38
38
38
38
38
ENDCHAR
STARTCHAR iacute
ENCODING 237
SWIDTH 255 0
DWIDTH 5 0
BBX 6 15 0 0
BITMAP
3C
FC
78
40
20
70
70
70
70
70
70
70
70
70
70
ENDCHAR
STARTCHAR icircumflex
ENCODING 238
SWIDTH 255 0
DWIDTH 5 0
BBX 8 15 -1 0
BITMAP
FE
FF
EE
00
10
38
38
38
38
38
38
38
38
38
38
ENDCHAR
STARTCHAR idieresis
ENCODING 239
SWIDTH 255 0
DWIDTH 5 0
BBX 9 15 -2 0
BITMAP
F380
F780
E380
0000
0800
1C00
1C00
1C00
1C00
1C00
1C00
1C00
1C00
1C00
1C00
ENDCHAR
STARTCHAR eth
ENCODING 240
SWIDTH 585 0
DWIDTH 12 0
BBX 11 16 0 0
BITMAP
0300
1F00
1F00
0F80
1BC0
01C0
1FE0
3FE0
7FE0
71E0
F0E0
70E0
79E0
7FC0
3FC0
1F00
ENDCHAR
STARTCHAR ntilde
ENCODING 241
SWIDTH 606 0
DWIDTH 12 0
BBX 10 15 1 0
BITMAP
3D80
7F80
6700
0000
4400
FF80
FF80
FFC0
F3C0
E1C0
E1C0
E1C0
E1C0
E1C0
E1C0
ENDCHAR
STARTCHAR ograve
ENCODING 242
SWIDTH 600 0
DWIDTH 12 0
BBX 12 15 0 0
BITMAP
1E00
1F80
0F80
0100
0F00
1FC0
3FE0
7FE0
70E0
F0F0
70E0
79E0
7FE0
3FC0
1F80
ENDCHAR
STARTCHAR oacute
ENCODING 243
SWIDTH 600 0
DWIDTH 12 0
BBX 12 15 0 0
BITMAP
0780
0F80
0F00
0800
0F00
1FC0
3FE0
7FE0
70E0
F0F0
70E0
79E0
7FE0
3FC0
1F80
ENDCHAR
STARTCHAR ocircumflex
ENCODING 244
SWIDTH 600 0
DWIDTH 12 0
BBX 12 15 0 0
BITMAP
1F80
3FC0
3FC0
0000
0F00
1FC0
3FE0
7FE0
70E0
F0F0
70E0
79E0
7FE0
3FC0
1F80
ENDCHAR
STARTCHAR otilde
ENCODING 245
SWIDTH 600 0
DWIDTH 12 0
BBX 12 15 0 0
BITMAP
1FC0
3FC0
3380
0000
0F00
1FC0
3FE0
7FE0
70E0
F0F0
70E0
79E0
7FE0
3FC0
1F80
ENDCHAR
STARTCHAR odieresis
ENCODING 246
SWIDTH 600 0
DWIDTH 12 0
BBX 12 15 0 0
BITMAP
79C0
79C0
39C0
0000
0F00
1FC0
3FE0
7FE0
70E0
F0F0
70E0
79E0
7FE0
3FC0
1F80
ENDCHAR
STARTCHAR divide
ENCODING 247
SWIDTH 503 0
DWIDTH 10 0
BBX 10 11 0 0
BITMAP
0C00
1E00
1E00
0000
7F80
FFC0
7F80
0000
1E00
1E00
0C00
ENDCHAR
STARTCHAR oslash
ENCODING 248
SWIDTH 600 0
DWIDTH 12 0
BBX 12 17 0 -3
BITMAP
00C0
00E0
01E0
0FC0
1FC0
3FC0
7FE0
70E0
F0F0
70E0
79E0
7FE0
3FC0
3F80
7800
7800
3000
ENDCHAR
STARTCHAR ugrave
ENCODING 249
SWIDTH 606 0
DWIDTH 12 0
BBX 10 15 1 0
BITMAP
3C00
3F00
1F00
0200
4080
E1C0
E1C0
E1C0
E1C0
E1C0
E1C0
FFC0
FFC0
7FC0
3DC0
ENDCHAR
STARTCHAR uacute
ENCODING 250
SWIDTH 606 0
DWIDTH 12 0
BBX 10 15 1 0
BITMAP
0F00
1F80
1F00
0800
4080
E1C0
E1C0
E1C0
E1C0
E1C0
E1C0
FFC0
FFC0
7FC0
3DC0
ENDCHAR
STARTCHAR ucircumflex
ENCODING 251
SWIDTH 606 0
DWIDTH 12 0
BBX 10 15 1 0
BITMAP
3F00
7F80
7F80
0000
4080
E1C0
E1C0
E1C0
E1C0
E1C0
E1C0
FFC0
FFC0
7FC0
3DC0
ENDCHAR
STARTCHAR udieresis
ENCODING 252
SWIDTH 606 0
DWIDTH 12 0
BBX 10 15 1 0
BITMAP
7380
73C0
7380
0000
4080
E1C0
E1C0
E1C0
E1C0
E1C0
E1C0
FFC0
FFC0
7FC0
3DC0
ENDCHAR
STARTCHAR yacute
ENCODING 253
SWIDTH 604 0
DWIDTH 12 0
BBX 12 20 0 -5
BITMAP
0780
0FC0
0F80
0800
2040
F0F0
F0F0
79E0
3DE0
3FC0
1FC0
1F80
0F80
0700
0F00
0F00
1E00
1E00
1C00
0C00
ENDCHAR
STARTCHAR thorn
ENCODING 254
SWIDTH 580 0
DWIDTH 12 0
BBX 10 21 1 -5
BITMAP
E000
E000
E000
E000
E000
E400
FF00
FF80
FFC0
F3C0
E1C0
E3C0
FFC0
FF80
FF80
EE00
E000
E000
E000
E000
4000
ENDCHAR
STARTCHAR ydieresis
ENCODING 255
SWIDTH 604 0
DWIDTH 12 0
BBX 12 20 0 -5
BITMAP
39E0
39E0
39E0
0000
2040
F0F0
F0F0
79E0
3DE0
3FC0
1FC0
1F80
0F80
0700
0F00
0F00
1E00
1E00
1C00
0C00
ENDCHAR
STARTCHAR dotlessi
ENCODING 305
SWIDTH 255 0
DWIDTH 5 0
BBX 3 11 1 0
BITMAP
40
E0
E0
E0
E0
E0
E0
E0
E0
E0
E0
ENDCHAR
STARTCHAR Lslash
ENCODING 321
SWIDTH 687 0
DWIDTH 14 0
BBX 13 15 0 0
BITMAP
1C00
1C00
1C00
1C00
1C00
1F80
1F80
FF80
7C00
1C00
1C00
1C00
1FF8
1FF8
1FF8
ENDCHAR
STARTCHAR lslash
ENCODING 322
SWIDTH 468 0
DWIDTH 9 0
BBX 9 16 0 0
BITMAP
0800
1C00
1C00
1C00
1C00
1C00
1F80
1F80
FF00
FC00
1C00
1C00
1C00
1F00
1F00
0F00
ENDCHAR
STARTCHAR OE
ENCODING 338
SWIDTH 1092 0
DWIDTH 22 0
BBX 21 15 0 0
BITMAP
03FFF8
0FFFF8
1FFFF8
3FFFF8
7C3800
783800
703FE0
F03FE0
703FE0
703800
783800
3E3FF0
3FFFF8
1FFFF8
07FFF8
ENDCHAR
STARTCHAR oe
ENCODING 339
SWIDTH 944 0
DWIDTH 19 0
BBX 18 11 0 0
BITMAP
0F0E00
1FBF80
3FFFC0
7FFBC0
70F1C0
F0FFC0
70FF80
79F000
7FFFC0
3FFFC0
1F9F80
ENDCHAR
STARTCHAR Scaron
ENCODING 352
SWIDTH 583 0
DWIDTH 12 0
BBX 11 19 0 0
BITMAP
3FC0
3FC0
1F00
0000
1F00
3FC0
7FC0
79C0
7080
7800
7F00
3FC0
0FE0
01E0
60E0
F9E0
7FE0
7FC0
1F80
ENDCHAR
STARTCHAR scaron
ENCODING 353
SWIDTH 489 0
DWIDTH 10 0
BBX 9 15 0 0
BITMAP
7F00
7F80
3E00
0000
1E00
7F80
7F80
7100
7E00
7F80
3F80
6380
7F80
FF80
3F00
ENDCHAR
STARTCHAR Ydieresis
ENCODING 376
SWIDTH 686 0
DWIDTH 14 0
BBX 13 19 0 0
BITMAP
3CE0
3CE0
1CE0
0000
2030
F038
F878
78F8
3CF0
3FE0
1FE0
0FC0
0F80
0780
0780
0780
0780
0780
0700
ENDCHAR
STARTCHAR Zcaron
ENCODING 381
SWIDTH 643 0
DWIDTH 13 0
BBX 12 19 0 0
BITMAP
1FC0
3FC0
0F80
0000
7FE0
7FF0
FFF0
7FE0
03E0
03C0
0780
0F80
0F00
1E00
3C00
7C00
7FF0
FFF0
7FF0
ENDCHAR
STARTCHAR zcaron
ENCODING 382
SWIDTH 586 0
DWIDTH 12 0
BBX 11 15 0 0
BITMAP
3FC0
3FC0
1F80
0000
3FC0
7FE0
7FE0
7FC0
0780
0F00
1E00
3FC0
7FE0
FFE0
7FE0
ENDCHAR
STARTCHAR florin
ENCODING 402
SWIDTH 529 0
DWIDTH 11 0
BBX 10 19 0 -4
BITMAP
01C0
07C0
07C0
0F80
0E00
3FC0
3FC0
3FC0
3F80
1E00
1E00
1E00
1E00
1E00
1C00
1C00
7C00
FC00
F800
ENDCHAR
STARTCHAR circumflex
ENCODING 710
SWIDTH 603 0
DWIDTH 12 0
BBX 8 3 2 12
BITMAP
7E
FF
FF
ENDCHAR
STARTCHAR caron
ENCODING 711
SWIDTH 600 0
DWIDTH 12 0
BBX 8 3 2 12
BITMAP
FF
FF
7E
ENDCHAR
STARTCHAR dotaccent
ENCODING 729
SWIDTH 285 0
DWIDTH 6 0
BBX 4 4 1 14
BITMAP
60
F0
F0
E0
ENDCHAR
STARTCHAR ring
ENCODING 730
SWIDTH 378 0
DWIDTH 8 0
BBX 5 5 1 13
BITMAP
78
C8
C8
78
30
ENDCHAR
STARTCHAR ogonek
ENCODING 731
SWIDTH 570 0
DWIDTH 11 0
BBX 4 5 3 -4
BITMAP
20
70
C0
70
30
ENDCHAR
STARTCHAR tilde
ENCODING 732
SWIDTH 584 0
DWIDTH 12 0
BBX 8 3 2 12
BITMAP
FF
FE
DE
ENDCHAR
STARTCHAR endash
ENCODING 8211
SWIDTH 561 0
DWIDTH 11 0
BBX 11 3 0 4
BITMAP
FFE0
FFE0
FFE0
ENDCHAR
STARTCHAR emdash
ENCODING 8212
SWIDTH 693 0
DWIDTH 14 0
BBX 14 3 0 4
BITMAP
FFF8
FFFC
FFF8
ENDCHAR
STARTCHAR quoteleft
ENCODING 8216
SWIDTH 237 0
DWIDTH 5 0
BBX 4 7 0 8
BITMAP
10
30
60
60
70
F0
70
ENDCHAR
STARTCHAR quoteright
ENCODING 8217
SWIDTH 237 0
DWIDTH 5 0
BBX 4 7 0 8
BITMAP
60
70
F0
70
30
60
60
ENDCHAR
STARTCHAR quotesinglbase
ENCODING 8218
SWIDTH 237 0
DWIDTH 5 0
BBX 4 7 0 -3
BITMAP
70
70
F0
70
30
60
60
ENDCHAR
STARTCHAR quotedblleft
ENCODING 8220
SWIDTH 482 0
DWIDTH 10 0
BBX 9 7 0 8
BITMAP
1080
3180
6300
6300
7780
F780
7380
ENDCHAR
STARTCHAR quotedblright
ENCODING 8221
SWIDTH 482 0
DWIDTH 10 0
BBX 9 7 0 8
BITMAP
6300
7780
F780
7380
3180
6300
6700
ENDCHAR
STARTCHAR quotedblbase
ENCODING 8222
SWIDTH 482 0
DWIDTH 10 0
BBX 9 7 0 -3
BITMAP
7380
7780
F780
7380
3180
6300
6700
ENDCHAR
STARTCHAR dagger
ENCODING 8224
SWIDTH 527 0
DWIDTH 11 0
BBX 10 19 0 -4
BITMAP
0E00
0E00
0E00
0E00
0E00
FFC0
FFC0
7FC0
0E00
0E00
0E00
0E00
0E00
0E00
0E00
0E00
0E00
0E00
0E00
ENDCHAR
STARTCHAR daggerdbl
ENCODING 8225
SWIDTH 527 0
DWIDTH 11 0
BBX 10 19 0 -4
BITMAP
0E00
0E00
0E00
0E00
0E00
FFC0
FFC0
7FC0
0E00
0E00
0E00
FFC0
FFC0
FFC0
0E00
0E00
0E00
0E00
0E00
ENDCHAR
STARTCHAR bullet
ENCODING 8226
SWIDTH 342 0
DWIDTH 7 0
BBX 6 6 0 3
BITMAP
7C
7C
FC
7C
7C
30
ENDCHAR
STARTCHAR ellipsis
ENCODING 8230
SWIDTH 911 0
DWIDTH 18 0
BBX 18 4 0 0
BITMAP
70C180
71E3C0
F1E3C0
70E380
ENDCHAR
STARTCHAR perthousand
ENCODING 8240
SWIDTH 1223 0
DWIDTH 24 0
BBX 23 17 1 -1
BITMAP
001000
383000
7C3000
FC6000
CEC000
CEC000
FD8000
7D8000
3B0000
037C7C
067EFC
06E6CE
0CC6CE
0CEEEE
187EFC
183C78
100000
ENDCHAR
STARTCHAR guilsinglleft
ENCODING 8249
SWIDTH 383 0
DWIDTH 8 0
BBX 7 11 0 0
BITMAP
04
0E
1E
3E
7C
F8
78
3C
1E
0E
04
ENDCHAR
STARTCHAR guilsinglright
ENCODING 8250
SWIDTH 383 0
DWIDTH 8 0
BBX 7 11 0 0
BITMAP
20
70
F8
7C
3E
1E
3E
7C
78
F0
60
ENDCHAR
STARTCHAR fraction
ENCODING 8260
SWIDTH 433 0
DWIDTH 9 0
BBX 9 17 1 -1
BITMAP
0080
0180
0180
0300
0300
0600
0600
0C00
0C00
1800
1000
3000
6000
6000
C000
C000
8000
ENDCHAR
STARTCHAR Euro
ENCODING 8364
SWIDTH 612 0
DWIDTH 12 0
BBX 12 15 0 0
BITMAP
07F0
1FF0
1FF0
3C00
3C00
FFE0
7FC0
3800
FFE0
FFE0
3C00
1FC0
1FF0
0FF0
07E0
ENDCHAR
STARTCHAR trademark
ENCODING 8482
SWIDTH 840 0
DWIDTH 17 0
BBX 16 8 0 5
BITMAP
7E43
FFE7
7EFF
18FF
18FF
18FB
18E3
18E3
ENDCHAR
STARTCHAR minus
ENCODING 8722
SWIDTH 581 0
DWIDTH 12 0
BBX 11 3 0 4
BITMAP
7FE0
FFE0
7FE0
ENDCHAR
STARTCHAR f_f
ENCODING 64256
SWIDTH 803 0
DWIDTH 16 0
BBX 16 16 0 0
BITMAP
0204
1F1E
1F3E
3F7E
3C78
7D7A
FFFF
FFFF
FFFE
3C78
3C78
3C78
3C78
3C78
3C78
3870
ENDCHAR
STARTCHAR fi
ENCODING 64257
SWIDTH 709 0
DWIDTH 14 0
BBX 13 16 0 0
BITMAP
0200
1F38
1F38
3F38
3C00
3E10
FFB8
FFB8
7F38
3C38
3C38
3C38
3C38
3C38
3C38
3838
ENDCHAR
STARTCHAR fl
ENCODING 64258
SWIDTH 774 0
DWIDTH 15 0
BBX 15 16 0 0
BITMAP
0210
1F38
1F38
3F38
3C38
3E38
FFB8
FFB8
7F38
3C38
3C38
3C38
3C38
3C3E
3C3E
381E
ENDCHAR
STARTCHAR f_f_i
ENCODING 64259
SWIDTH 1059 0
DWIDTH 21 0
BBX 20 16 0 0
BITMAP
020400
1F1E70
1F3E70
3F7E70
3C7800
7D7A00
FFFF70
FFFF70
FFFE70
3C7870
3C7870
3C7870
3C7870
3C7870
3C7870
387070
ENDCHAR
STARTCHAR .notdef
ENCODING -1
SWIDTH 500 0
DWIDTH 10 0
BBX 1 1 0 0
BITMAP
00
ENDCHAR
STARTCHAR .null
ENCODING -1
SWIDTH 0 0
DWIDTH 0 0
BBX 1 1 0 0
BITMAP
00
ENDCHAR
STARTCHAR nonmarkingreturn
ENCODING -1
SWIDTH 333 0
DWIDTH 7 0
BBX 1 1 0 0
BITMAP
00
ENDCHAR
STARTCHAR f_t
ENCODING -1
SWIDTH 814 0
DWIDTH 16 0
BBX 16 16 0 0
BITMAP
0200
1F00
1F38
3F78
3C78
7D7A
FFFF
FFFF
FFFF
3C78
3C78
3C78
3C78
3C3E
3C3E
381E
ENDCHAR
STARTCHAR t_t
ENCODING -1
SWIDTH 794 0
DWIDTH 16 0
BBX 16 14 0 0
BITMAP
3870
3C78
3C78
7D7C
FFFF
FFFF
FFFE
3C78
3C78
3C78
3C78
3F7E
1F3E
0F1E
ENDCHAR
STARTCHAR l_l
ENCODING -1
SWIDTH 626 0
DWIDTH 13 0
BBX 11 16 1 0
BITMAP
4200
E780
E780
E780
E780
E780
E780
E780
E780
E780
E780
E780
F7C0
FFE0
FBE0
79E0
ENDCHAR
STARTCHAR j_j
ENCODING -1
SWIDTH 521 0
DWIDTH 10 0
BBX 13 20 -3 -5
BITMAP
0E78
0E78
0E70
0000
0400
0E78
0E78
0E78
0E78
0E78
0E78
0E78
0E78
0E78
0E78
1E78
7EF0
FDF0
F9E0
60C0
ENDCHAR
ENDFONT
